<svg width="25" height="25" viewBox="0 0 25 25" fill="none" xmlns="http://www.w3.org/2000/svg">
<path d="M22.5 17.1645V5.09451C22.5 3.89451 21.52 3.00451 20.33 3.10451H20.27C18.17 3.28451 14.98 4.35451 13.2 5.47451L13.03 5.58451C12.74 5.76451 12.26 5.76451 11.97 5.58451L11.72 5.43451C9.94 4.32451 6.76 3.26451 4.66 3.09451C3.47 2.99451 2.5 3.89451 2.5 5.08451V17.1645C2.5 18.1245 3.28 19.0245 4.24 19.1445L4.53 19.1845C6.7 19.4745 10.05 20.5745 11.97 21.6245L12.01 21.6445C12.28 21.7945 12.71 21.7945 12.97 21.6445C14.89 20.5845 18.25 19.4745 20.43 19.1845L20.76 19.1445C21.72 19.0245 22.5 18.1245 22.5 17.1645Z" stroke="black" stroke-width="1.5" stroke-linecap="round" stroke-linejoin="round"/>
<path d="M12.5 5.91455V20.9146" stroke="black" stroke-width="1.5" stroke-linecap="round" stroke-linejoin="round"/>
<path d="M8.25 8.91455H6" stroke="black" stroke-width="1.5" stroke-linecap="round" stroke-linejoin="round"/>
<path d="M9 11.9146H6" stroke="black" stroke-width="1.5" stroke-linecap="round" stroke-linejoin="round"/>
</svg>
