<svg width="44" height="44" viewBox="0 0 44 44" fill="none" xmlns="http://www.w3.org/2000/svg">
<path d="M25.1717 6.43497L28.3984 12.8883C28.8384 13.7866 30.0117 14.6483 31.0017 14.8133L36.8501 15.785C40.5901 16.4083 41.4701 19.1216 38.7751 21.7983L34.2284 26.345C33.4584 27.115 33.0367 28.6 33.2751 29.6633L34.5767 35.2916C35.6034 39.7466 33.2384 41.47 29.2967 39.1416L23.8151 35.8966C22.8251 35.31 21.1934 35.31 20.1851 35.8966L14.7034 39.1416C10.7801 41.47 8.39674 39.7283 9.42341 35.2916L10.7251 29.6633C10.9634 28.6 10.5417 27.115 9.77174 26.345L5.22508 21.7983C2.54841 19.1216 3.41008 16.4083 7.15008 15.785L12.9984 14.8133C13.9701 14.6483 15.1434 13.7866 15.5834 12.8883L18.8101 6.43497C20.5701 2.9333 23.4301 2.9333 25.1717 6.43497Z" stroke="black" stroke-width="3" stroke-linecap="round" stroke-linejoin="round"/>
</svg>
