<svg width="25" height="25" viewBox="0 0 25 25" fill="none" xmlns="http://www.w3.org/2000/svg">
<path d="M12.6499 16.9246V19.0246" stroke="black" stroke-width="1.5" stroke-linecap="round" stroke-linejoin="round"/>
<path d="M7.6499 22.4246H17.6499V21.4246C17.6499 20.3246 16.7499 19.4246 15.6499 19.4246H9.6499C8.5499 19.4246 7.6499 20.3246 7.6499 21.4246V22.4246V22.4246Z" stroke="black" stroke-width="1.5" stroke-miterlimit="10"/>
<path d="M6.6499 22.4246H18.6499" stroke="black" stroke-width="1.5" stroke-linecap="round" stroke-linejoin="round"/>
<path d="M12.5 16.4246C8.63 16.4246 5.5 13.2946 5.5 9.42456V6.42456C5.5 4.21456 7.29 2.42456 9.5 2.42456H15.5C17.71 2.42456 19.5 4.21456 19.5 6.42456V9.42456C19.5 13.2946 16.37 16.4246 12.5 16.4246Z" stroke="black" stroke-width="1.5" stroke-linecap="round" stroke-linejoin="round"/>
<path d="M5.97004 12.0747C5.22004 11.8347 4.56004 11.3947 4.04004 10.8747C3.14004 9.87466 2.54004 8.67466 2.54004 7.27466C2.54004 5.87466 3.64004 4.77466 5.04004 4.77466H5.69004C5.49004 5.23466 5.39004 5.74466 5.39004 6.27466V9.27466C5.39004 10.2747 5.60004 11.2147 5.97004 12.0747Z" stroke="black" stroke-width="1.5" stroke-linecap="round" stroke-linejoin="round"/>
<path d="M19.0298 12.0747C19.7798 11.8347 20.4398 11.3947 20.9598 10.8747C21.8598 9.87466 22.4598 8.67466 22.4598 7.27466C22.4598 5.87466 21.3598 4.77466 19.9598 4.77466H19.3098C19.5098 5.23466 19.6098 5.74466 19.6098 6.27466V9.27466C19.6098 10.2747 19.3998 11.2147 19.0298 12.0747Z" stroke="black" stroke-width="1.5" stroke-linecap="round" stroke-linejoin="round"/>
</svg>
