<svg width="40" height="44" viewBox="0 0 40 44" fill="none" xmlns="http://www.w3.org/2000/svg">
<path d="M6.19043 6.42969H32.4615" stroke="black" stroke-width="2"/>
<path d="M1 3.61479V40.3487C1 41.9462 2.29503 43.2412 3.89253 43.2412C5.50714 43.2412 6.80914 41.9194 6.78473 40.305L6.22927 3.57524C6.20766 2.14672 5.04347 1 3.61478 1C2.17068 1 1 2.17068 1 3.61479Z" fill="black" stroke="black" stroke-width="1.5"/>
<path d="M32.5413 3.61479V40.3487C32.5413 41.9462 33.8363 43.2412 35.4338 43.2412C37.0484 43.2412 38.3504 41.9194 38.326 40.305L37.7705 3.57524C37.7489 2.14672 36.5847 1 35.156 1C33.7119 1 32.5413 2.17068 32.5413 3.61479Z" fill="black" stroke="black" stroke-width="1.5"/>
<path d="M15.8829 31.211L16.4782 23.1584C16.5846 21.7202 16.4916 20.2742 16.2022 18.8615C15.7864 16.8328 14.9596 14.9153 13.853 13.1649C12.3813 10.8372 10.8658 8.20465 11.0095 7.55794C11.3234 6.14538 13.2646 8.00453 14.0807 9.19948L16.6887 13.0184C17.271 13.871 18.2368 14.381 19.2693 14.381C20.2927 14.381 21.2512 13.8799 21.8353 13.0396L25.285 8.07691C25.6011 7.62212 26.3018 7.0036 26.8543 7.04272C27.9188 7.11811 27.4465 8.40481 26.8733 9.30489L24.313 13.3251C23.1884 15.0911 22.4326 17.0663 22.0912 19.132L22.0737 19.2379C21.8625 20.5155 21.8067 21.814 21.9076 23.105L22.5018 30.7104C22.5722 31.6123 22.481 33.1755 21.5764 33.1677C20.4586 33.1581 20.345 31.7767 20.2528 30.6556L20.2492 30.6117L19.846 25.7201C19.7835 24.9608 19.4504 23.4294 18.9048 23.9612C18.5323 24.3242 18.594 24.8343 18.5771 25.3542C18.5009 27.7001 18.3197 31.4084 18.0457 32.0782C17.9393 32.3384 17.7922 32.5343 17.6336 32.6799C17.1841 33.0925 16.4253 33.2115 16.1163 32.6854C15.8674 32.2619 15.8467 31.7008 15.8829 31.211Z" fill="black" stroke="black"/>
<path d="M20.9256 10.7466C20.9256 11.6716 20.1758 12.4215 19.2508 12.4215C18.3258 12.4215 17.5759 11.6716 17.5759 10.7466C17.5759 9.82163 18.3258 9.07178 19.2508 9.07178C20.1758 9.07178 20.9256 9.82163 20.9256 10.7466Z" fill="black" stroke="black"/>
</svg>
