<svg width="54" height="54" viewBox="0 0 54 54" fill="none" xmlns="http://www.w3.org/2000/svg">
<path d="M5.15259 17.5049V39.3974C5.15259 43.6724 8.19009 45.4274 11.8801 43.3124L17.1676 40.2974C18.3151 39.6449 20.2276 39.5774 21.4201 40.1849L33.2326 46.1024C34.4251 46.6874 36.3376 46.6424 37.4851 45.9899L47.2276 40.4099C48.4651 39.6899 49.5001 37.9349 49.5001 36.4949V14.6024C49.5001 10.3274 46.4626 8.57245 42.7726 10.6874L37.4851 13.7024C36.3376 14.3549 34.4251 14.4224 33.2326 13.8149L21.4201 7.91995C20.2276 7.33494 18.3151 7.37994 17.1676 8.03244L7.42509 13.6124C6.16509 14.3324 5.15259 16.0874 5.15259 17.5049Z" stroke="black" stroke-width="3" stroke-linecap="round" stroke-linejoin="round"/>
<path d="M19.26 9V38.25" stroke="black" stroke-width="1.5" stroke-linecap="round" stroke-linejoin="round"/>
<path d="M35.3926 14.895V45" stroke="black" stroke-width="1.5" stroke-linecap="round" stroke-linejoin="round"/>
</svg>
